<?xml version="1.0" encoding="utf-8"?>
<!-- Generator: Adobe Illustrator 24.2.1, SVG Export Plug-In . SVG Version: 6.00 Build 0)  -->
<svg version="1.1" id="Layer_1" xmlns="http://www.w3.org/2000/svg" xmlns:xlink="http://www.w3.org/1999/xlink" x="0px" y="0px"
	 viewBox="0 0 394 80" style="enable-background:new 0 0 394 80;" xml:space="preserve">
<style type="text/css">
	.st0{fill:none;}
	.st1{enable-background:new    ;}
	.st2{font-family:'DINCondensed-Bold';}
	.st3{font-size:66.7206px;}
</style>
<rect class="st0" width="394" height="80"/>
<g class="st1">
	<path d="M81.8,1.7v79H60l0-53.3l-8.7,53.3H35.9l-9.1-52.1l0,52.1H5v-79h32.2c1,4.7,1.9,10.3,3,16.8l3.5,20.1l5.7-36.9H81.8z"/>
	<path d="M134.8,1.7l14.2,79h-25.4l-1.3-14.2h-8.9l-1.5,14.2H86.1l12.7-79H134.8z M121.6,52.4c-1.3-8.9-2.5-20-3.8-33.2
		c-2.5,15.1-4.1,26.2-4.8,33.2H121.6z"/>
	<path d="M153.3,1.7h25.1c6.8,0,12,0.4,15.6,1.3c3.6,0.9,6.4,2.1,8.2,3.8c1.8,1.7,3.1,3.7,3.7,6c0.7,2.4,1,6,1,10.9v6.9
		c0,5-0.6,8.7-1.9,11c-1.3,2.3-3.6,4.1-6.9,5.3s-7.8,1.9-13.2,1.9h-6.7v31.8h-24.9V1.7z M178.2,15.2v20.1c0.7,0,1.3,0,1.8,0
		c2.3,0,3.9-0.5,4.8-1.4s1.3-2.9,1.3-5.8v-6.5c0-2.7-0.5-4.5-1.5-5.3C183.6,15.6,181.4,15.2,178.2,15.2z"/>
	<path d="M254.1,1.7l14.2,79h-25.4l-1.3-14.2h-8.9l-1.5,14.2h-25.7l12.7-79H254.1z M240.9,52.4c-1.3-8.9-2.5-20-3.8-33.2
		c-2.5,15.1-4.1,26.2-4.8,33.2H240.9z"/>
	<path d="M325.3,25.6h-23.1v-5.9c0-2.7-0.3-4.5-0.9-5.2c-0.6-0.7-1.6-1.1-3-1.1c-1.5,0-2.6,0.5-3.4,1.5s-1.2,2.5-1.2,4.6
		c0,2.6,0.4,4.6,1.3,6c0.8,1.3,3.2,2.9,7,4.8c11.1,5.4,18.1,9.9,20.9,13.4c2.9,3.5,4.3,9.1,4.3,16.8c0,5.6-0.8,9.8-2.4,12.4
		c-1.6,2.7-4.7,4.9-9.3,6.7c-4.6,1.8-9.9,2.7-16,2.7c-6.7,0-12.4-1-17.1-3.1c-4.7-2.1-7.8-4.7-9.3-7.9c-1.5-3.2-2.2-7.8-2.2-13.7
		v-5.2h23.1v9.6c0,3,0.3,4.9,1,5.7c0.7,0.8,1.8,1.3,3.5,1.3c1.7,0,2.9-0.5,3.7-1.6c0.8-1.1,1.2-2.7,1.2-4.8c0-4.6-0.8-7.7-2.3-9.1
		c-1.6-1.4-5.5-3.8-11.7-7.2c-6.2-3.4-10.3-5.8-12.3-7.4c-2-1.5-3.7-3.6-5-6.3c-1.3-2.7-2-6.1-2-10.3c0-6,0.9-10.5,2.8-13.3
		c1.9-2.8,4.9-5,9.1-6.6c4.2-1.6,9.2-2.4,15.1-2.4c6.5,0,12,0.9,16.5,2.6c4.6,1.7,7.6,3.9,9,6.5c1.5,2.6,2.2,7.1,2.2,13.3V25.6z"/>
</g>
<rect x="329.2" y="20.3" class="st0" width="61.7" height="56.5"/>
<text transform="matrix(1.0608 0 0 1 329.1699 64.0195)" class="st2 st3">.py</text>
</svg>
