<?xml version="1.0" encoding="utf-8"?>
<!-- Generator: Adobe Illustrator 24.2.1, SVG Export Plug-In . SVG Version: 6.00 Build 0)  -->
<svg version="1.1" id="Layer_1" xmlns="http://www.w3.org/2000/svg" xmlns:xlink="http://www.w3.org/1999/xlink" x="0px" y="0px"
	 viewBox="0 0 394 80" style="enable-background:new 0 0 394 80;" xml:space="preserve">
<style type="text/css">
	.st0{fill:none;}
	.st1{enable-background:new    ;}
</style>
<rect class="st0" width="394" height="80"/>
<rect x="329.2" y="20.3" class="st0" width="61.7" height="56.5"/>
<g class="st1">
	<path d="M329.5,64v-6.8h7.2V64H329.5z"/>
	<path d="M342.6,77.7V30.2h7.2v3.1c0.9-1,1.8-1.8,2.8-2.5c0.9-0.7,2.3-1,4.1-1c3,0,5.1,1.1,6.3,3.2c0.4,0.8,0.7,1.7,0.9,2.8
		c0.2,1.1,0.3,2.6,0.3,4.5v12.9c0,2.5-0.1,4.3-0.2,5.4c-0.3,2.2-1.4,3.9-3.3,5c-0.9,0.6-2.3,0.9-4.1,0.9c-1.4,0-2.7-0.3-3.8-0.9
		c-1.1-0.6-2.1-1.5-2.9-2.6h-0.1v16.7H342.6z M357,41.2c0-1.4-0.3-2.5-0.8-3.3c-0.6-0.8-1.5-1.3-2.7-1.3c-1.1,0-2,0.4-2.6,1.2
		c-0.7,0.8-1,1.8-1,3v13.1c0,1.1,0.3,1.9,1,2.6c0.7,0.7,1.5,1,2.6,1c1.4,0,2.3-0.4,2.8-1.2c0.5-0.8,0.7-1.7,0.7-2.8V41.2z"/>
	<path d="M366.3,30.2h7.6l5,21.1h0.1l4.9-21.1h7.4L381,69.9c-0.4,1.5-0.9,2.8-1.6,3.7c-0.7,1-1.5,1.8-2.4,2.4
		c-0.9,0.6-1.9,1.1-2.9,1.3c-1,0.2-2.1,0.4-3.2,0.4h-2v-6.4h1.6c0.7,0,1.3-0.1,1.8-0.3s1-0.6,1.4-1.2c0.4-0.6,0.7-1.5,1.1-2.6
		c0.3-1.1,0.7-2.7,1.1-4.7L366.3,30.2z"/>
</g>
<g>
	<path d="M0,82.4V-0.9h15.4l20.5,44.1h0.3L56.6-0.9h15.5v83.3h-16V31.8h-0.3L40,67.6h-8L16.3,31.8H16v50.7H0z"/>
	<path d="M80,82.4l24.9-83.3h13.3l24.9,83.3h-16l-4.7-17.9h-21.8l-4.7,17.9H80z M119.5,53.3l-7.8-30.2h-0.3l-7.8,30.2H119.5z"/>
	<path d="M151,82.4V-0.9h24c4.4,0,8.3,0.4,11.6,1.3c3.3,0.9,6.4,2.4,9.1,4.6c2.7,2.2,4.6,4.7,5.6,7.7c1,2.9,1.6,6.9,1.6,11.9
		c0,3.7-0.3,6.9-0.9,9.5c-0.6,2.6-1.8,5-3.7,7.3c-2.2,2.7-5.1,4.9-8.8,6.4c-3.7,1.5-8.5,2.3-14.4,2.3H167v32.5H151z M167,10.3v28.3
		h7.7c3.2,0,5.7-0.4,7.5-1.1c1.8-0.7,3.1-1.7,3.9-2.9c0.8-1.2,1.3-2.6,1.5-4.3c0.2-1.7,0.2-3.6,0.2-5.7c0-1.9-0.1-3.8-0.2-5.6
		c-0.1-1.8-0.6-3.3-1.4-4.6c-0.8-1.3-2.1-2.3-3.8-3c-1.7-0.7-4.1-1.1-7.2-1.1H167z"/>
	<path d="M201.8,82.4l24.9-83.3H240l24.9,83.3h-16l-4.7-17.9h-21.8l-4.7,17.9H201.8z M241.3,53.3l-7.8-30.2h-0.3l-7.8,30.2H241.3z"
		/>
	<path d="M324.5,23.1h-16v-2.7c0-2.7-0.9-5.1-2.6-7.1c-1.7-2-4.6-3-8.7-3c-2.2,0-4,0.3-5.3,0.9c-1.4,0.6-2.5,1.4-3.3,2.3
		c-0.8,1-1.4,2.2-1.7,3.5c-0.3,1.3-0.5,2.6-0.5,4c0,1.6,0.1,3,0.2,4.1c0.2,1.1,0.5,2.1,1.2,2.9c0.6,0.9,1.5,1.6,2.7,2.2
		c1.2,0.6,2.8,1.2,4.9,1.9l12.2,3.6c3.6,1,6.4,2.2,8.6,3.6c2.2,1.4,3.9,2.9,5.2,4.7c1.1,1.9,1.9,4,2.4,6.4c0.4,2.4,0.6,5.1,0.6,8.1
		c0,3.5-0.5,6.8-1.4,9.8c-0.9,3-2.5,5.6-4.5,7.7c-2.2,2.2-5.1,3.9-8.6,5.1c-3.6,1.2-7.9,1.9-13,1.9c-3.9,0-7.5-0.5-10.8-1.5
		c-3.3-1-6.2-2.4-8.6-4.2c-2.4-1.8-4.3-3.9-5.7-6.3c-1.4-2.4-2.1-5-2.1-7.8v-4.4h16v3.7c0,2.2,0.9,4.2,2.6,5.9
		c1.7,1.8,4.6,2.6,8.7,2.6c2.7,0,4.8-0.3,6.3-0.9c1.5-0.6,2.7-1.4,3.5-2.5c0.8-1.1,1.3-2.4,1.5-3.9c0.2-1.5,0.2-3.2,0.2-5.1
		c0-2.2-0.1-4-0.3-5.4c-0.2-1.4-0.6-2.5-1.3-3.4c-0.7-0.9-1.7-1.6-2.9-2.1c-1.2-0.5-2.8-1.1-4.8-1.8l-11.4-3.5
		c-6.9-2.1-11.5-4.9-13.9-8.4c-2.4-3.5-3.5-7.8-3.5-13c0-3.1,0.6-6.1,1.7-8.9c1.1-2.8,2.9-5.2,5.2-7.3c2.2-2,5-3.6,8.4-4.9
		c3.4-1.2,7.4-1.8,12.1-1.8c4,0,7.6,0.5,10.9,1.6c3.3,1.1,6.1,2.5,8.5,4.3c4.8,3.7,7.2,8,7.2,12.9V23.1z"/>
</g>
</svg>
