<?xml version="1.0" encoding="utf-8"?>
<!-- Generator: Adobe Illustrator 24.2.1, SVG Export Plug-In . SVG Version: 6.00 Build 0)  -->
<svg version="1.1" id="Layer_1" xmlns="http://www.w3.org/2000/svg" xmlns:xlink="http://www.w3.org/1999/xlink" x="0px" y="0px"
	 viewBox="0 0 40 31" style="enable-background:new 0 0 40 31;" xml:space="preserve">
<style type="text/css">
	.st0{fill:none;}
</style>
<rect class="st0" width="40.8" height="31"/>
<g>
	<g>
		<path d="M1.5,15.5c0-9.2,8.5-15,18.5-15c10,0,18.5,5.8,18.5,15c0,9.3-8.5,15-18.5,15C10,30.6,1.5,24.9,1.5,15.5z M35.7,15.5
			c0-8.3-7.5-13-15.7-13c-8.2,0-15.7,4.8-15.7,13s7.5,13,15.7,13C28.3,28.6,35.7,23.8,35.7,15.5z M8.5,15.5C8.5,9.8,13.9,6,20,6
			c6.2,0,11.5,3.8,11.5,9.5c0,5.8-5.3,9.5-11.5,9.5C13.9,25,8.5,21.3,8.5,15.5z"/>
	</g>
</g>
</svg>
