<?xml version="1.0" encoding="utf-8"?>
<!-- Generator: Adobe Illustrator 24.2.1, SVG Export Plug-In . SVG Version: 6.00 Build 0)  -->
<svg version="1.1" id="Layer_1" xmlns="http://www.w3.org/2000/svg" xmlns:xlink="http://www.w3.org/1999/xlink" x="0px" y="0px"
	 viewBox="0 0 283 64" style="enable-background:new 0 0 283 64;" xml:space="preserve">
<style type="text/css">
	.st0{fill:none;}
	.st1{enable-background:new    ;}
</style>
<rect class="st0" width="283" height="64"/>
<g class="st1">
	<path d="M28,19.3h-7.6v-2c0-2-0.4-3.7-1.2-5.2C18.4,10.7,17,10,15.1,10c-1,0-1.9,0.2-2.5,0.7c-0.6,0.5-1.2,1-1.6,1.7
		c-0.4,0.7-0.7,1.6-0.8,2.5c-0.1,0.9-0.2,1.9-0.2,2.9c0,1.2,0,2.2,0.1,3c0.1,0.8,0.3,1.5,0.6,2.1c0.3,0.6,0.7,1.2,1.3,1.6
		c0.6,0.5,1.3,0.9,2.3,1.4l5.8,2.6c1.7,0.7,3,1.6,4.1,2.6c1,1,1.9,2.1,2.4,3.5c0.5,1.4,0.9,2.9,1.1,4.7C27.9,41,28,43,28,45.2
		c0,2.6-0.2,4.9-0.7,7.1c-0.4,2.2-1.2,4.1-2.1,5.6c-1,1.6-2.4,2.8-4.1,3.8c-1.7,0.9-3.7,1.4-6.1,1.4c-1.8,0-3.5-0.4-5.1-1.1
		c-1.6-0.7-2.9-1.8-4.1-3.1c-1.1-1.3-2-2.8-2.7-4.6c-0.7-1.7-1-3.6-1-5.7v-3.2h7.6v2.7c0,1.6,0.4,3,1.2,4.3c0.8,1.3,2.2,1.9,4.1,1.9
		c1.3,0,2.3-0.2,3-0.6c0.7-0.4,1.3-1,1.7-1.8c0.4-0.8,0.6-1.8,0.7-2.9c0.1-1.1,0.1-2.3,0.1-3.7c0-1.6,0-2.9-0.1-3.9
		c-0.1-1-0.3-1.8-0.6-2.5c-0.3-0.6-0.8-1.1-1.4-1.5c-0.6-0.4-1.3-0.8-2.3-1.3l-5.4-2.6C7.4,32,5.2,30,4.1,27.4
		c-1.1-2.5-1.7-5.7-1.7-9.5c0-2.3,0.3-4.4,0.8-6.5c0.5-2,1.4-3.8,2.4-5.3c1-1.5,2.4-2.7,4-3.5c1.6-0.9,3.5-1.3,5.7-1.3
		c1.9,0,3.6,0.4,5.1,1.2c1.6,0.8,2.9,1.8,4,3.2C26.9,8.4,28,11.5,28,15V19.3z"/>
	<path d="M30.2,62.6L42,1.8h6.3l11.8,60.8h-7.6l-2.2-13.1H40l-2.2,13.1H30.2z M48.9,41.3l-3.7-22H45l-3.7,22H48.9z"/>
	<path d="M63.5,62.6V1.8h7.3l11.4,36.6h0.1V1.8h7.6v60.8h-7.1L71.2,26H71v36.5H63.5z"/>
	<path d="M101.6,62.6V10h-8.7V1.8h25V10h-8.7v52.6H101.6z"/>
	<path d="M121.5,62.6V1.8h7.6v60.8H121.5z"/>
	<path d="M133,62.6l11.8-60.8h6.3l11.8,60.8h-7.6L153,49.5h-10.3l-2.2,13.1H133z M151.6,41.3l-3.7-22h-0.1l-3.7,22H151.6z"/>
	<path d="M166.1,16.1c0-2.4,0.4-4.6,1.1-6.5c0.7-1.9,1.7-3.4,3-4.7c1.2-1.2,2.5-2.1,4-2.7c1.5-0.6,3-0.9,4.6-0.9
		c1.5,0,3,0.3,4.6,0.9c1.5,0.6,2.9,1.5,4.1,2.7c1.2,1.3,2.1,2.8,2.9,4.7c0.7,1.9,1.1,4,1.1,6.5v3.1h-7.6v-3.1c0-2.1-0.5-3.7-1.5-4.7
		c-1-1-2.2-1.5-3.6-1.5s-2.6,0.5-3.6,1.5c-1,1-1.5,2.5-1.5,4.7v32.1c0,2.1,0.5,3.7,1.5,4.7c1,1,2.2,1.5,3.6,1.5s2.6-0.5,3.6-1.5
		c1-1,1.5-2.5,1.5-4.7V36.8h-6v-7.7h13.6v19.1c0,2.6-0.4,4.8-1.1,6.6c-0.7,1.8-1.7,3.3-2.9,4.5c-1.2,1.3-2.6,2.2-4.1,2.8
		c-1.5,0.6-3,0.9-4.6,0.9c-1.5,0-3-0.3-4.6-0.9c-1.5-0.6-2.9-1.6-4-2.8c-1.2-1.2-2.2-2.7-3-4.5c-0.7-1.8-1.1-4-1.1-6.6V16.1z"/>
	<path d="M197.6,16.1c0-2.4,0.4-4.6,1.1-6.5c0.7-1.9,1.7-3.4,3-4.7c1.2-1.2,2.5-2.1,4-2.7c1.5-0.6,3-0.9,4.6-0.9
		c1.5,0,3,0.3,4.6,0.9c1.5,0.6,2.9,1.5,4.1,2.7c1.2,1.3,2.1,2.8,2.9,4.7c0.7,1.9,1.1,4,1.1,6.5v32.1c0,2.6-0.4,4.8-1.1,6.6
		c-0.7,1.8-1.7,3.3-2.9,4.5c-1.2,1.3-2.6,2.2-4.1,2.8c-1.5,0.6-3,0.9-4.6,0.9c-1.5,0-3-0.3-4.6-0.9c-1.5-0.6-2.9-1.6-4-2.8
		c-1.2-1.2-2.2-2.7-3-4.5c-0.7-1.8-1.1-4-1.1-6.6V16.1z M205.2,48.2c0,2.1,0.5,3.7,1.5,4.7c1,1,2.2,1.5,3.6,1.5s2.6-0.5,3.6-1.5
		c1-1,1.5-2.5,1.5-4.7V16.1c0-2.1-0.5-3.7-1.5-4.7c-1-1-2.2-1.5-3.6-1.5s-2.6,0.5-3.6,1.5c-1,1-1.5,2.5-1.5,4.7V48.2z"/>
	<path d="M243.4,62.6V1.8h11c2.4,0,4.5,0.4,6.2,1.3c1.7,0.9,3.1,2,4.2,3.4c1.1,1.4,1.9,3.1,2.3,4.9c0.5,1.9,0.7,3.8,0.7,5.8v2.2
		c0,1.7-0.1,3-0.3,4.2c-0.2,1.1-0.6,2.1-1,3c-0.8,1.6-2.1,3-3.9,4.1c1.8,1,3.1,2.4,3.9,4.3c0.8,1.9,1.3,4.4,1.3,7.7V46
		c0,5.3-1.1,9.4-3.4,12.3c-2.2,2.8-5.8,4.3-10.8,4.3H243.4z M251,10v16.7h3.4c2.5,0,4.2-0.7,5.1-2.2c0.9-1.5,1.3-3.6,1.3-6.4
		c0-2.7-0.5-4.8-1.4-6.1c-1-1.4-2.7-2-5.2-2H251z M251,34.4v19.5h3.3c1.5,0,2.7-0.3,3.6-0.8c0.9-0.5,1.5-1.2,2-2.1s0.7-2,0.8-3.2
		s0.1-2.6,0.1-4.1c0-1.5-0.1-2.9-0.2-4c-0.1-1.1-0.4-2.1-0.9-2.9c-0.5-0.8-1.2-1.4-2-1.8c-0.8-0.4-2-0.6-3.3-0.6H251z"/>
	<path d="M274.5,62.6v-8.7h7.6v8.7H274.5z"/>
</g>
</svg>
